<svg width="46" height="46" viewBox="0 0 46 46" fill="none" xmlns="http://www.w3.org/2000/svg">
<circle cx="23" cy="23" r="23" fill="#121212"/>
<g filter="url(#filter0_d_5_11)">
<path d="M8.15042 7.08106C8.78578 6.48401 9.78485 6.51506 10.3819 7.15043L37.048 35.5276C37.645 36.1629 37.6139 37.162 36.9786 37.7591V37.7591C36.3432 38.3561 35.3442 38.325 34.7471 37.6897L8.08105 9.31254C7.484 8.67718 7.51506 7.67811 8.15042 7.08106V7.08106Z" fill="#828CF4"/>
<path d="M37.8837 8.16875C38.5002 8.78526 38.5002 9.78481 37.8837 10.4013L10.3488 37.9362C9.73232 38.5527 8.73277 38.5527 8.11627 37.9362V37.9362C7.49976 37.3197 7.49976 36.3202 8.11627 35.7036L35.6512 8.16876C36.2677 7.55225 37.2672 7.55225 37.8837 8.16875V8.16875Z" fill="#828CF4"/>
</g>
<defs>
<filter id="filter0_d_5_11" x="5.05283" y="4.05283" width="35.8932" height="36.9457" filterUnits="userSpaceOnUse" color-interpolation-filters="sRGB">
<feFlood flood-opacity="0" result="BackgroundImageFix"/>
<feColorMatrix in="SourceAlpha" type="matrix" values="0 0 0 0 0 0 0 0 0 0 0 0 0 0 0 0 0 0 127 0" result="hardAlpha"/>
<feOffset/>
<feGaussianBlur stdDeviation="1.3"/>
<feComposite in2="hardAlpha" operator="out"/>
<feColorMatrix type="matrix" values="0 0 0 0 0.509804 0 0 0 0 0.54902 0 0 0 0 0.956863 0 0 0 1 0"/>
<feBlend mode="normal" in2="BackgroundImageFix" result="effect1_dropShadow_5_11"/>
<feBlend mode="normal" in="SourceGraphic" in2="effect1_dropShadow_5_11" result="shape"/>
</filter>
</defs>
</svg>
